<svg viewBox="-4 -4 28.00 28.00" xmlns="http://www.w3.org/2000/svg" fill="none"><g id="SVGRepo_bgCarrier" stroke-width="0" transform="translate(0,0), scale(1)"><rect x="-4" y="-4" width="28.00" height="28.00" rx="14" fill="transparent" strokewidth="0"></rect></g><g id="SVGRepo_tracerCarrier" stroke-linecap="round" stroke-linejoin="round" stroke="#ffffffCCCCCC" stroke-width="0.44000000000000006"></g><g id="SVGRepo_iconCarrier"> <path fill="#ffffff" fill-rule="evenodd" d="M19 4a1 1 0 01-1 1H2a1 1 0 010-2h16a1 1 0 011 1zm0 6a1 1 0 01-1 1H2a1 1 0 110-2h16a1 1 0 011 1zm-1 7a1 1 0 100-2H2a1 1 0 100 2h16z"></path> </g></svg>